<svg width="900" height="230.181" viewBox="0 0 238.125 60.902" version="1.1" id="svg5" xmlns:xlink="http://www.w3.org/1999/xlink" xmlns="http://www.w3.org/2000/svg"><defs id="defs2"><linearGradient id="linearGradient1292"><stop style="stop-color:#00477c;stop-opacity:1" offset="0" id="stop1288"/><stop style="stop-color:#50ae4a;stop-opacity:1" offset="1" id="stop1290"/></linearGradient><linearGradient id="a" x1="63.929" x2="909.25" y1="778.84" y2="734.5" gradientUnits="userSpaceOnUse" xlink:href="#linearGradient22579"><stop stop-color="#46fdff" offset="0" id="stop46747"/><stop stop-color="#004b80" stop-opacity=".918" offset="1" id="stop46749"/></linearGradient><linearGradient id="linearGradient22579"><stop style="stop-color:#26517a;stop-opacity:1" offset="0" id="stop22575"/><stop style="stop-color:#2a9d8f;stop-opacity:1" offset="1" id="stop22577"/></linearGradient><linearGradient id="a-3" x1="63.929" x2="909.25" y1="778.84" y2="734.5" gradientUnits="userSpaceOnUse" xlink:href="#linearGradient22579"><stop stop-color="#46fdff" offset="0" id="stop10365"/><stop stop-color="#004b80" stop-opacity=".918" offset="1" id="stop10367"/></linearGradient><linearGradient xlink:href="#linearGradient1292" id="linearGradient21803" x1="63.933" y1="823.185" x2="1359.269" y2="1731.421" gradientUnits="userSpaceOnUse" gradientTransform="matrix(.27806 0 0 .06368 -17.743 -40.303)"/><filter id="b" x="0" y="0" width="1" height="1"><feColorMatrix in="SourceGraphic" result="result14" type="luminanceToAlpha" id="feColorMatrix10358"/><feComposite in="SourceGraphic" in2="result14" operator="out" result="fbSourceGraphic" id="feComposite10360"/><feBlend in2="fbSourceGraphic" result="result15" id="feBlend10362" mode="normal"/></filter><style type="text/css" id="style3864">.fil0{fill:#000}</style></defs><g id="layer1"><path transform="matrix(.27805 0 0 .08228 -18.068 -57.154)" d="M65.829 721.75s174.13 136.16 300.74 112.23c129.46-12.505 241.31-128.84 363.44-139.28 63.824-5.456 191.06 40.215 191.06 40.215l.594 89.154-1.006 126.48-856.25 1.271 1.43-230.07z" fill="url(#a)" filter="url(#b)" stroke="url(#a)" stroke-width=".943" id="path10372" style="fill:#00617c;fill-opacity:.66274512;stroke:none"/><path transform="matrix(.27805 0 0 .08228 -18.068 -55.27)" d="M65.829 721.75s174.13 136.16 300.74 112.23c129.46-12.505 241.31-128.84 363.44-139.28 63.824-5.456 191.06 40.215 191.06 40.215l.594 89.154-1.006 126.48-856.25 1.271 1.43-230.07z" fill="url(#a)" filter="url(#b)" stroke="url(#a)" stroke-width=".943" id="path53805" style="fill:#00617c;fill-opacity:.87843138;stroke:none"/><path id="path10376" style="fill:url(#linearGradient21803);fill-opacity:1;stroke:none;stroke-width:.133066" d="M.13 5.763s48.52 7.227 83.725 5.703c35.998-.796 67.472-7.15 101.39-7.532 17.813-.2 53.047 2.74 53.047 2.74v5.31l.051 8.323H.167Zm.037 14.544h238.176V60.67H.167Z"/><g style="clip-rule:evenodd;opacity:.0496097;fill-rule:evenodd;image-rendering:optimizeQuality;shape-rendering:geometricPrecision;text-rendering:geometricPrecision" id="g3909" transform="matrix(.00238 .00122 -.00138 .0021 47.882 12.48)"><path class="fil0" d="M6623 0h484c143 0 261 117 261 261v918H6363V261c0-144 117-261 260-261Zm745 12551v919c0 143-118 261-261 261h-484c-143 0-260-118-260-261v-919z" id="path3868"/><path class="fil0" d="M0 7107v-484c0-143 117-260 261-260h918v1005H261c-144 0-261-118-261-261Zm12551-744h919c143 0 261 117 261 260v484c0 143-118 261-261 261h-919z" id="path3870"/><path class="fil0" d="M7997 0h484c143 0 261 117 261 261v918H7737V261c0-144 117-261 260-261Zm745 12551v919c0 143-118 261-261 261h-484c-143 0-260-118-260-261v-919z" id="path3872"/><path class="fil0" d="M0 5733v-484c0-143 117-260 261-260h918v1005H261c-144 0-261-117-261-261Zm12551-744h919c143 0 261 117 261 260v484c0 144-118 261-261 261h-919z" id="path3874"/><path class="fil0" d="M9371 0h484c143 0 261 117 261 261v918H9111V261c0-144 117-261 260-261Zm745 12551v919c0 143-118 261-261 261h-484c-143 0-260-118-260-261v-919z" id="path3876"/><path class="fil0" d="M0 4359v-484c0-143 117-260 261-260h918v1005H261c-144 0-261-117-261-261Zm12551-744h919c143 0 261 117 261 260v484c0 144-118 261-261 261h-919z" id="path3878"/><path class="fil0" d="M5249 0h484c144 0 261 117 261 261v918H4989V261c0-144 117-261 260-261Zm745 12551v919c0 143-117 261-261 261h-484c-143 0-260-118-260-261v-919z" id="path3880"/><path class="fil0" d="M0 8481v-484c0-143 117-260 261-260h918v1005H261c-144 0-261-118-261-261Zm12551-744h919c143 0 261 117 261 260v484c0 143-118 261-261 261h-919z" id="path3882"/><path class="fil0" d="M3875 0h484c144 0 261 117 261 261v918H3615V261c0-144 117-261 260-261Zm745 12551v919c0 143-117 261-261 261h-484c-143 0-260-118-260-261v-919z" id="path3884"/><path class="fil0" d="M0 9855v-484c0-143 117-260 261-260h918v1005H261c-144 0-261-118-261-261Zm12551-744h919c143 0 261 117 261 260v484c0 143-118 261-261 261h-919z" id="path3886"/><path class="fil0" d="M3148 1644h7434c828 0 1505 677 1505 1504v7434c0 828-677 1505-1505 1505H3148c-827 0-1504-677-1504-1505V3148c0-827 677-1504 1504-1504zm329 864h6777c533 0 969 436 969 969v6777c0 533-436 969-969 969H3477c-533 0-969-436-969-969V3477c0-533 436-969 969-969z" id="path3888"/><rect class="fil0" x="3178" y="3178" width="7374" height="7374" rx="668" ry="668" id="rect3890"/></g><g id="g4273" transform="matrix(.02313 0 0 .02316 193.534 9.786)" style="opacity:.0929017"><g id="g3975"><g id="g3823"><path id="path3009" fill="none" stroke="#000" stroke-width="5.071" stroke-linecap="round" stroke-linejoin="round" d="M739.604 29c-3.073.445-5.633.233-5.354 7.199l.483 129.44 192.653 4.423-.264-131.966c.405-5.65-.811-8.507-5.899-8.462z"/><path id="path3781" fill="none" stroke="#000" stroke-width="5.071" stroke-linecap="round" stroke-linejoin="round" d="m695.775 234.064.174 10.331c-.36 5.398 2.143 7.05 4.96 7.742l255.311-.488c3.276-.006 6.335-2.978 5.978-8.4l-.087-10.227z"/><path id="path3779" fill="none" stroke="#000" stroke-width="5.071" stroke-linecap="round" stroke-linejoin="round" d="m734.938 163.058-38.76 69.904c-.595 2.08.07 4.189 2.988 4.153l258.067-.198c4.396.287 5.993-2.115 3.955-5.816l-33.664-67.979z"/><path id="path3783" fill="none" stroke="#000" stroke-width="5.071" stroke-linecap="round" stroke-linejoin="round" d="M747.374 171.767c-2.337-.168-3.671 2.64-4.676 4.573l-13.338 27.13c-1.889 3.45 1.11 4.163 3.505 4.211l195.784-.047c2.848.066 4.109-2.524 2.315-5.321l-12.501-26.941c-.776-1.556-1.84-3.059-3.692-3.041z"/><path id="path3785" fill="none" stroke="#000" stroke-width="5.071" stroke-linecap="round" stroke-linejoin="round" d="m807.349 213.686-6.313 14.414c-.972 2.103-.046 3.928 1.945 3.815l51.995-.149c1.624.198 3.102-2.244 2.275-4.217l-5.544-13.635c-.552-1.604-1.503-2.139-2.544-2.101l-38.735.396c-1.971-.097-2.439.619-3.079 1.477z"/><path id="path3787" fill="none" stroke="#000" stroke-width="5.071" stroke-linecap="round" stroke-linejoin="round" d="m745.742 40.93.132 112.045h168.99l.42-112.083z"/><path id="path3789" fill="none" stroke="#000" stroke-width="5.071" stroke-linecap="round" stroke-linejoin="round" d="M835.85 35.578c0 1.898-1.574 3.436-3.515 3.436s-3.515-1.539-3.515-3.436 1.574-3.436 3.515-3.436 3.515 1.539 3.515 3.436z"/></g><g id="g3823_1_"><path id="path3009_1_" fill="none" stroke="#000" stroke-width="5.071" stroke-linecap="round" stroke-linejoin="round" d="M200.102 326.527c-1.859 2.488-3.819 4.148 1.305 8.876l91.869 91.186L432.629 293.49l-93.501-93.128c-3.709-4.281-6.589-5.442-10.155-1.812z"/><path id="path3781_1_" fill="none" stroke="#000" stroke-width="5.071" stroke-linecap="round" stroke-linejoin="round" d="m314.113 502.521 7.428 7.183c3.562 4.072 6.5 3.47 8.981 1.968l180.187-180.877c2.312-2.321 2.374-6.585-1.713-10.167l-7.293-7.17z"/><path id="path3779_1_" fill="none" stroke="#000" stroke-width="5.071" stroke-linecap="round" stroke-linejoin="round" d="m291.596 424.62 22.022 76.837c1.051 1.892 3.012 2.912 5.05.823l182.341-182.621c3.311-2.906 2.742-5.733-1.316-6.909l-71.873-24.264Z"/><path id="path3783_1_" fill="none" stroke="#000" stroke-width="5.071" stroke-linecap="round" stroke-linejoin="round" d="M306.548 421.984c-1.771 1.534-.729 4.462-.073 6.54l9.752 28.615c1.104 3.775 3.729 2.159 5.456.499L460.09 319.164c2.061-1.967 1.121-4.691-2.125-5.4l-27.89-10.211c-1.649-.551-3.464-.862-4.761.46z"/><path id="path3785_1_" fill="none" stroke="#000" stroke-width="5.071" stroke-linecap="round" stroke-linejoin="round" d="m378.598 409.216 5.728 14.657c.799 2.175 2.745 2.81 4.073 1.322l36.661-36.871c1.288-1.008.607-3.78-1.374-4.591l-13.562-5.721c-1.525-.744-2.575-.45-3.284.313l-27.11 27.67c-1.462 1.325-1.286 2.162-1.132 3.221z"/><path id="path3787_1_" fill="none" stroke="#000" stroke-width="5.071" stroke-linecap="round" stroke-linejoin="round" d="m212.878 330.623 79.321 79.134 119.494-119.494-78.957-79.552z"/><path id="path3789_1_" fill="none" stroke="#000" stroke-width="5.071" stroke-linecap="round" stroke-linejoin="round" d="M272.81 263.122c1.342 1.342 1.317 3.543-.056 4.915-1.373 1.373-3.573 1.398-4.915.056-1.342-1.342-1.317-3.543.056-4.915 1.372-1.373 3.573-1.397 4.915-.056z"/></g><g id="g3823_2_"><path id="path3009_2_" fill="none" stroke="#000" stroke-width="5.071" stroke-linecap="round" stroke-linejoin="round" d="M29 918.396c.445 3.073.233 5.633 7.199 5.354l129.44-.483 4.423-192.653-131.966.264c-5.65-.405-8.507.811-8.462 5.899z"/><path id="path3781_2_" fill="none" stroke="#000" stroke-width="5.071" stroke-linecap="round" stroke-linejoin="round" d="m234.064 962.225 10.331-.174c5.398.36 7.05-2.143 7.742-4.96l-.488-255.311c-.006-3.276-2.978-6.335-8.4-5.978l-10.227.087z"/><path id="path3779_2_" fill="none" stroke="#000" stroke-width="5.071" stroke-linecap="round" stroke-linejoin="round" d="m163.058 923.062 69.904 38.76c2.08.595 4.189-.07 4.153-2.988l-.198-258.067c.287-4.396-2.115-5.993-5.816-3.955l-67.979 33.664z"/><path id="path3783_2_" fill="none" stroke="#000" stroke-width="5.071" stroke-linecap="round" stroke-linejoin="round" d="M171.767 910.626c-.168 2.337 2.64 3.671 4.573 4.676l27.13 13.338c3.45 1.889 4.163-1.11 4.211-3.505l-.047-195.784c.066-2.848-2.524-4.109-5.321-2.315l-26.941 12.501c-1.556.776-3.059 1.84-3.041 3.692z"/><path id="path3785_2_" fill="none" stroke="#000" stroke-width="5.071" stroke-linecap="round" stroke-linejoin="round" d="m213.686 850.651 14.414 6.313c2.103.972 3.928.046 3.815-1.945l-.149-51.995c.198-1.624-2.244-3.102-4.217-2.275l-13.635 5.544c-1.604.552-2.139 1.503-2.101 2.544l.396 38.735c-.097 1.971.619 2.439 1.477 3.079z"/><path id="path3787_2_" fill="none" stroke="#000" stroke-width="5.071" stroke-linecap="round" stroke-linejoin="round" d="m40.93 912.258 112.045-.132v-168.99l-112.083-.42z"/><path id="path3789_2_" fill="none" stroke="#000" stroke-width="5.071" stroke-linecap="round" stroke-linejoin="round" d="M35.578 822.15c1.898 0 3.436 1.574 3.436 3.515s-1.539 3.515-3.436 3.515-3.436-1.574-3.436-3.515 1.539-3.515 3.436-3.515z"/></g><g id="g3823_3_"><path id="path3009_3_" fill="none" stroke="#000" stroke-width="5.071" stroke-linecap="round" stroke-linejoin="round" d="M326.527 1457.898c2.488 1.859 4.148 3.819 8.876-1.305l91.186-91.869-133.099-139.353-93.128 93.501c-4.281 3.709-5.442 6.589-1.812 10.155z"/><path id="path3781_3_" fill="none" stroke="#000" stroke-width="5.071" stroke-linecap="round" stroke-linejoin="round" d="m502.521 1343.887 7.183-7.428c4.072-3.562 3.47-6.5 1.968-8.981l-180.877-180.187c-2.321-2.313-6.585-2.374-10.167 1.713l-7.17 7.293z"/><path id="path3779_3_" fill="none" stroke="#000" stroke-width="5.071" stroke-linecap="round" stroke-linejoin="round" d="m424.62 1366.404 76.837-22.022c1.892-1.051 2.912-3.012.823-5.05l-182.621-182.341c-2.906-3.312-5.733-2.742-6.909 1.316l-24.264 71.873z"/><path id="path3783_3_" fill="none" stroke="#000" stroke-width="5.071" stroke-linecap="round" stroke-linejoin="round" d="M421.984 1351.452c1.534 1.771 4.462.729 6.54.073l28.615-9.752c3.775-1.104 2.159-3.729.499-5.456L319.164 1197.91c-1.967-2.061-4.691-1.121-5.4 2.125l-10.211 27.89c-.551 1.649-.862 3.464.46 4.761z"/><path id="path3785_3_" fill="none" stroke="#000" stroke-width="5.071" stroke-linecap="round" stroke-linejoin="round" d="m409.216 1279.402 14.657-5.728c2.175-.799 2.81-2.745 1.322-4.073l-36.871-36.661c-1.008-1.288-3.78-.607-4.591 1.374l-5.721 13.562c-.744 1.525-.45 2.575.313 3.284l27.67 27.11c1.325 1.462 2.162 1.286 3.221 1.132z"/><path id="path3787_3_" fill="none" stroke="#000" stroke-width="5.071" stroke-linecap="round" stroke-linejoin="round" d="m330.623 1445.122 79.134-79.321-119.494-119.494-79.552 78.957z"/><path id="path3789_3_" fill="none" stroke="#000" stroke-width="5.071" stroke-linecap="round" stroke-linejoin="round" d="M263.122 1385.19c1.342-1.342 3.543-1.317 4.915.056 1.373 1.373 1.398 3.573.056 4.915-1.342 1.342-3.543 1.317-4.915-.056-1.372-1.373-1.397-3.573-.056-4.915z"/></g><g id="g3823_4_"><path id="path3009_4_" fill="none" stroke="#000" stroke-width="5.071" stroke-linecap="round" stroke-linejoin="round" d="M918.396 1629c3.073-.445 5.633-.233 5.354-7.199l-.483-129.44-192.653-4.423.264 131.966c-.405 5.65.811 8.507 5.899 8.462z"/><path id="path3781_4_" fill="none" stroke="#000" stroke-width="5.071" stroke-linecap="round" stroke-linejoin="round" d="m962.225 1423.936-.174-10.331c.36-5.398-2.143-7.05-4.96-7.742l-255.311.488c-3.276.01-6.335 2.978-5.978 8.401l.087 10.227z"/><path id="path3779_4_" fill="none" stroke="#000" stroke-width="5.071" stroke-linecap="round" stroke-linejoin="round" d="m923.062 1494.942 38.76-69.904c.595-2.08-.07-4.189-2.988-4.153l-258.067.198c-4.396-.287-5.993 2.115-3.955 5.816l33.664 67.979z"/><path id="path3783_4_" fill="none" stroke="#000" stroke-width="5.071" stroke-linecap="round" stroke-linejoin="round" d="M910.626 1486.233c2.337.168 3.671-2.64 4.676-4.573l13.338-27.13c1.889-3.45-1.11-4.163-3.505-4.211l-195.784.047c-2.848-.066-4.109 2.524-2.315 5.321l12.501 26.941c.776 1.556 1.84 3.059 3.692 3.041z"/><path id="path3785_4_" fill="none" stroke="#000" stroke-width="5.071" stroke-linecap="round" stroke-linejoin="round" d="m850.651 1444.314 6.313-14.415c.972-2.103.046-3.928-1.945-3.815l-51.995.149c-1.624-.198-3.102 2.244-2.275 4.217l5.544 13.635c.552 1.604 1.503 2.139 2.544 2.101l38.735-.396c1.971.098 2.439-.618 3.079-1.476z"/><path id="path3787_4_" fill="none" stroke="#000" stroke-width="5.071" stroke-linecap="round" stroke-linejoin="round" d="m912.258 1617.07-.132-112.045h-168.99l-.42 112.083z"/><path id="path3789_4_" fill="none" stroke="#000" stroke-width="5.071" stroke-linecap="round" stroke-linejoin="round" d="M822.15 1622.422c0-1.898 1.574-3.436 3.515-3.436s3.515 1.539 3.515 3.436-1.574 3.436-3.515 3.436-3.515-1.539-3.515-3.436z"/></g><g id="g3823_5_"><path id="path3009_5_" fill="none" stroke="#000" stroke-width="5.071" stroke-linecap="round" stroke-linejoin="round" d="M1457.898 1331.473c1.859-2.488 3.819-4.148-1.305-8.876l-91.869-91.186-139.353 133.099 93.501 93.128c3.709 4.281 6.589 5.442 10.155 1.812z"/><path id="path3781_5_" fill="none" stroke="#000" stroke-width="5.071" stroke-linecap="round" stroke-linejoin="round" d="m1343.887 1155.479-7.428-7.183c-3.562-4.072-6.5-3.469-8.981-1.968l-180.187 180.877c-2.313 2.321-2.374 6.585 1.713 10.167l7.293 7.17z"/><path id="path3779_5_" fill="none" stroke="#000" stroke-width="5.071" stroke-linecap="round" stroke-linejoin="round" d="m1366.404 1233.38-22.022-76.837c-1.051-1.892-3.012-2.912-5.05-.823l-182.341 182.621c-3.312 2.906-2.742 5.733 1.316 6.909l71.873 24.265z"/><path id="path3783_5_" fill="none" stroke="#000" stroke-width="5.071" stroke-linecap="round" stroke-linejoin="round" d="M1351.452 1236.016c1.771-1.534.729-4.462.073-6.541l-9.752-28.615c-1.104-3.775-3.729-2.159-5.456-.499l-138.407 138.474c-2.061 1.967-1.121 4.691 2.125 5.4l27.89 10.211c1.649.551 3.464.862 4.761-.46z"/><path id="path3785_5_" fill="none" stroke="#000" stroke-width="5.071" stroke-linecap="round" stroke-linejoin="round" d="m1279.402 1248.784-5.728-14.657c-.799-2.175-2.745-2.81-4.073-1.322l-36.661 36.871c-1.288 1.008-.607 3.78 1.374 4.591l13.562 5.721c1.525.744 2.575.45 3.284-.313l27.11-27.67c1.462-1.325 1.286-2.162 1.132-3.221z"/><path id="path3787_5_" fill="none" stroke="#000" stroke-width="5.071" stroke-linecap="round" stroke-linejoin="round" d="m1445.122 1327.377-79.321-79.134-119.494 119.494 78.957 79.552z"/><path id="path3789_5_" fill="none" stroke="#000" stroke-width="5.071" stroke-linecap="round" stroke-linejoin="round" d="M1385.19 1394.878c-1.342-1.342-1.317-3.543.056-4.915 1.373-1.372 3.573-1.398 4.915-.056 1.342 1.342 1.317 3.543-.056 4.915-1.373 1.372-3.573 1.397-4.915.056z"/></g><g id="g3823_6_"><path id="path3009_6_" fill="none" stroke="#000" stroke-width="5.071" stroke-linecap="round" stroke-linejoin="round" d="M1629 739.604c-.445-3.073-.233-5.633-7.199-5.354l-129.44.483-4.423 192.653 131.966-.264c5.65.405 8.507-.811 8.462-5.899z"/><path id="path3781_6_" fill="none" stroke="#000" stroke-width="5.071" stroke-linecap="round" stroke-linejoin="round" d="m1423.936 695.775-10.331.174c-5.398-.36-7.05 2.143-7.742 4.96l.488 255.311c.01 3.276 2.978 6.335 8.401 5.978l10.227-.087z"/><path id="path3779_6_" fill="none" stroke="#000" stroke-width="5.071" stroke-linecap="round" stroke-linejoin="round" d="m1494.942 734.938-69.904-38.76c-2.08-.595-4.189.07-4.153 2.988l.198 258.067c-.287 4.396 2.115 5.993 5.816 3.955l67.979-33.664z"/><path id="path3783_6_" fill="none" stroke="#000" stroke-width="5.071" stroke-linecap="round" stroke-linejoin="round" d="M1486.233 747.374c.168-2.337-2.64-3.671-4.573-4.676l-27.13-13.338c-3.45-1.889-4.163 1.11-4.211 3.505l.047 195.784c-.066 2.848 2.524 4.109 5.321 2.315l26.941-12.501c1.556-.776 3.059-1.84 3.041-3.692z"/><path id="path3785_6_" fill="none" stroke="#000" stroke-width="5.071" stroke-linecap="round" stroke-linejoin="round" d="m1444.314 807.349-14.415-6.313c-2.103-.972-3.928-.046-3.815 1.945l.149 51.995c-.198 1.624 2.244 3.102 4.217 2.275l13.635-5.544c1.604-.552 2.139-1.503 2.101-2.544l-.396-38.735c.098-1.971-.618-2.439-1.476-3.079z"/><path id="path3787_6_" fill="none" stroke="#000" stroke-width="5.071" stroke-linecap="round" stroke-linejoin="round" d="m1617.07 745.742-112.045.132v168.99l112.083.42z"/><path id="path3789_6_" fill="none" stroke="#000" stroke-width="5.071" stroke-linecap="round" stroke-linejoin="round" d="M1622.422 835.85c-1.898 0-3.436-1.574-3.436-3.515s1.539-3.515 3.436-3.515 3.436 1.574 3.436 3.515-1.539 3.515-3.436 3.515z"/></g><g id="g3823_7_"><path id="path3009_7_" fill="none" stroke="#000" stroke-width="5.071" stroke-linecap="round" stroke-linejoin="round" d="M1331.473 200.102c-2.488-1.859-4.148-3.819-8.876 1.305l-91.186 91.869 133.099 139.353 93.128-93.501c4.281-3.709 5.442-6.589 1.812-10.155z"/><path id="path3781_7_" fill="none" stroke="#000" stroke-width="5.071" stroke-linecap="round" stroke-linejoin="round" d="m1155.479 314.113-7.183 7.428c-4.072 3.562-3.469 6.5-1.968 8.981l180.877 180.187c2.321 2.312 6.585 2.374 10.167-1.713l7.17-7.293z"/><path id="path3779_7_" fill="none" stroke="#000" stroke-width="5.071" stroke-linecap="round" stroke-linejoin="round" d="m1233.38 291.596-76.837 22.022c-1.892 1.051-2.912 3.012-.823 5.05l182.621 182.341c2.906 3.311 5.733 2.742 6.909-1.316l24.265-71.873z"/><path id="path3783_7_" fill="none" stroke="#000" stroke-width="5.071" stroke-linecap="round" stroke-linejoin="round" d="M1236.016 306.548c-1.534-1.771-4.462-.729-6.541-.073l-28.615 9.752c-3.775 1.104-2.159 3.729-.499 5.456l138.474 138.407c1.967 2.061 4.691 1.121 5.4-2.125l10.211-27.89c.551-1.649.862-3.464-.46-4.761z"/><path id="path3785_7_" fill="none" stroke="#000" stroke-width="5.071" stroke-linecap="round" stroke-linejoin="round" d="m1248.784 378.598-14.657 5.728c-2.175.799-2.81 2.745-1.322 4.073l36.871 36.661c1.008 1.288 3.78.607 4.591-1.374l5.721-13.562c.744-1.525.45-2.575-.313-3.284l-27.67-27.11c-1.325-1.462-2.162-1.286-3.221-1.132z"/><path id="path3787_7_" fill="none" stroke="#000" stroke-width="5.071" stroke-linecap="round" stroke-linejoin="round" d="m1327.377 212.878-79.134 79.321 119.494 119.494 79.552-78.957z"/><path id="path3789_7_" fill="none" stroke="#000" stroke-width="5.071" stroke-linecap="round" stroke-linejoin="round" d="M1394.878 272.81c-1.342 1.342-3.543 1.317-4.915-.056-1.373-1.373-1.398-3.573-.056-4.915 1.342-1.342 3.543-1.317 4.915.056 1.372 1.372 1.397 3.573.056 4.915z"/></g></g><g id="g4271"><g id="g4153"><path fill="none" stroke="#000" stroke-width="5" stroke-linejoin="round" stroke-miterlimit="10" id="polygon3977" d="m1090.074 567.926-108.14 108.14 108.14 44.793 44.793-108.14z"/><path fill="none" stroke="#000" stroke-width="5" stroke-linejoin="round" stroke-miterlimit="10" id="polygon3981" d="m937.141 567.926 44.793 108.14 108.14-108.14-44.793-44.793z"/><path fill="none" stroke="#000" stroke-width="5" stroke-linejoin="round" stroke-miterlimit="10" id="polygon3983" d="M720.859 567.926 829 612.719V459.785h-63.347z"/><path fill="none" stroke="#000" stroke-width="5" stroke-linejoin="round" stroke-miterlimit="10" id="polygon3985" d="m829 612.719 108.141-44.793-44.794-108.141H829z"/><path fill="none" stroke="#000" stroke-width="5" stroke-linejoin="round" stroke-miterlimit="10" id="polygon3987" d="m1045.281 829 44.793 108.14 108.141-44.793V829z"/><path fill="none" stroke="#000" stroke-width="5" stroke-linejoin="round" stroke-miterlimit="10" id="polygon3989" d="m981.934 981.934 108.14-44.794L1045.281 829z"/><path fill="none" stroke="#000" stroke-width="5" stroke-linejoin="round" stroke-miterlimit="10" id="polygon3991" d="m1090.074 720.859 108.141 44.794v-89.587l-63.348-63.347z"/><path fill="none" stroke="#000" stroke-width="5" stroke-linejoin="round" stroke-miterlimit="10" id="polygon3993" d="m720.859 567.926 44.794-108.141h-89.587l-63.347 63.348z"/><path fill="none" stroke="#000" stroke-width="5" stroke-linejoin="round" stroke-miterlimit="10" id="polygon3995" d="m1198.215 765.653-108.141-44.794L1045.281 829h152.934z"/><path fill="none" stroke="#000" stroke-width="5" stroke-linejoin="round" stroke-miterlimit="10" id="polygon3997" d="m937.141 567.926 108.14-44.793-63.347-63.348h-89.587z"/><path fill="none" stroke="#000" stroke-width="5" stroke-linejoin="round" stroke-miterlimit="10" id="polygon3999" d="m567.926 937.14-108.141-44.793v89.587l63.348 63.347z"/><path fill="none" stroke="#000" stroke-width="5" stroke-linejoin="round" stroke-miterlimit="10" id="polygon4001" d="m676.066 981.934-108.14-44.794-44.793 108.141 44.793 44.793z"/><path fill="none" stroke="#000" stroke-width="5" stroke-linejoin="round" stroke-miterlimit="10" id="polygon4003" d="m612.719 1134.868 108.14-44.794-44.793-108.14-108.14 108.14z"/><path fill="none" stroke="#000" stroke-width="5" stroke-linejoin="round" stroke-miterlimit="10" id="polygon4005" d="m829 1045.281-108.141 44.793 44.794 108.141H829z"/><path fill="none" stroke="#000" stroke-width="5" stroke-linejoin="round" stroke-miterlimit="10" id="polygon4007" d="m720.859 1090.074-108.14 44.794 63.347 63.347h89.587z"/><path fill="none" stroke="#000" stroke-width="5" stroke-linejoin="round" stroke-miterlimit="10" id="polygon4009" d="m523.133 612.719 44.793 108.14 108.14-44.793-108.14-108.14z"/><path fill="none" stroke="#000" stroke-width="5" stroke-linejoin="round" stroke-miterlimit="10" id="polygon4011" d="m676.066 676.066 44.793-108.14-108.14-44.793-44.793 44.793z"/><path fill="none" stroke="#000" stroke-width="5" stroke-linejoin="round" stroke-miterlimit="10" id="polygon4013" d="m567.926 720.859-44.793-108.14-63.348 63.347v89.587z"/><path fill="none" stroke="#000" stroke-width="5" stroke-linejoin="round" stroke-miterlimit="10" id="polygon4015" d="M459.785 829h152.934l-44.793-108.141-108.141 44.794z"/><path fill="none" stroke="#000" stroke-width="5" stroke-linejoin="round" stroke-miterlimit="10" id="polygon4017" d="M567.926 937.14 612.719 829H459.785v63.347z"/><path fill="none" stroke="#000" stroke-width="5" stroke-linejoin="round" stroke-miterlimit="10" id="polygon4019" d="m676.066 676.066-108.14 44.793L612.719 829z"/><path fill="none" stroke="#000" stroke-width="5" stroke-linejoin="round" stroke-miterlimit="10" id="polygon4023" d="m612.719 829 63.347 152.934L829 829z"/><path fill="none" stroke="#000" stroke-width="5" stroke-linejoin="round" stroke-miterlimit="10" id="polygon4027" d="m829 829 152.934 152.934L1045.281 829z"/><path fill="none" stroke="#000" stroke-width="5" stroke-linejoin="round" stroke-miterlimit="10" id="polygon4029" d="M981.934 676.066 829 829h216.281z"/><path fill="none" stroke="#000" stroke-width="5" stroke-linejoin="round" stroke-miterlimit="10" id="polygon4031" d="m829 1045.281 108.141 44.793 44.793-108.14z"/><path fill="none" stroke="#000" stroke-width="5" stroke-linejoin="round" stroke-miterlimit="10" id="polygon4033" d="m676.066 981.934 44.793 108.14L829 1045.281z"/><path fill="none" stroke="#000" stroke-width="5" stroke-linejoin="round" stroke-miterlimit="10" id="polygon4037" d="m1045.281 829 44.793-108.141-108.14-44.793z"/><path fill="none" stroke="#000" stroke-width="5" stroke-linejoin="round" stroke-miterlimit="10" id="polygon4039" d="M937.141 1090.074 829 1045.281v152.934h63.347z"/><path fill="none" stroke="#000" stroke-width="5" stroke-linejoin="round" stroke-miterlimit="10" id="polygon4045" d="m612.719 829-44.793 108.14 108.14 44.794z"/><path fill="none" stroke="#000" stroke-width="5" stroke-linejoin="round" stroke-miterlimit="10" id="polygon4049" d="M829 829v216.281l152.934-63.347z"/><path fill="none" stroke="#000" stroke-width="5" stroke-linejoin="round" stroke-miterlimit="10" id="polygon4051" d="M612.719 829H829L676.066 676.066z"/><path fill="none" stroke="#000" stroke-width="5" stroke-linejoin="round" stroke-miterlimit="10" id="polygon4053" d="M676.066 981.934 829 1045.281V829z"/><path fill="none" stroke="#000" stroke-width="5" stroke-linejoin="round" stroke-miterlimit="10" id="polygon4055" d="M676.066 676.066 829 829V612.719z"/><path fill="none" stroke="#000" stroke-width="5" stroke-linejoin="round" stroke-miterlimit="10" id="polygon4057" d="m829 612.719 152.934 63.347-44.793-108.14z"/><path fill="none" stroke="#000" stroke-width="5" stroke-linejoin="round" stroke-miterlimit="10" id="polygon4059" d="m829 829 152.934-152.934L829 612.719z"/><path fill="none" stroke="#000" stroke-width="5" stroke-linejoin="round" stroke-miterlimit="10" id="polygon4061" d="m720.859 567.926-44.793 108.14L829 612.719z"/><path fill="none" stroke="#000" stroke-width="5" stroke-linejoin="round" stroke-miterlimit="10" id="polygon4065" d="m567.926 567.926 44.793-44.793-152.934-63.348z"/><path fill="none" stroke="#000" stroke-width="5" stroke-linejoin="round" stroke-miterlimit="10" id="polygon4067" d="m612.719 1134.868-44.793-44.794-108.141 108.141z"/><path fill="none" stroke="#000" stroke-width="5" stroke-linejoin="round" stroke-miterlimit="10" id="polygon4069" d="M765.653 1198.215h-89.587L829 1351.148z"/><path fill="none" stroke="#000" stroke-width="5" stroke-linejoin="round" stroke-miterlimit="10" id="polygon4071" d="M676.066 1198.215H459.785L829 1351.148z"/><path fill="none" stroke="#000" stroke-width="5" stroke-linejoin="round" stroke-miterlimit="10" id="polygon4073" d="m676.066 1198.215-63.347-63.347-152.934 63.347z"/><path fill="none" stroke="#000" stroke-width="5" stroke-linejoin="round" stroke-miterlimit="10" id="polygon4075" d="m523.133 1045.281-63.348-63.347v216.281z"/><path fill="none" stroke="#000" stroke-width="5" stroke-linejoin="round" stroke-miterlimit="10" id="polygon4077" d="m567.926 1090.074-44.793-44.793-63.348 152.934z"/><path fill="none" stroke="#000" stroke-width="5" stroke-linejoin="round" stroke-miterlimit="10" id="polygon4079" d="M459.785 981.934 306.852 829l152.933 369.215z"/><path fill="none" stroke="#000" stroke-width="5" stroke-linejoin="round" stroke-miterlimit="10" id="polygon4081" d="M459.785 829v-63.347L306.852 829z"/><path fill="none" stroke="#000" stroke-width="5" stroke-linejoin="round" stroke-miterlimit="10" id="polygon4083" d="M459.785 765.653v-89.587L306.852 829z"/><path fill="none" stroke="#000" stroke-width="5" stroke-linejoin="round" stroke-miterlimit="10" id="polygon4085" d="M459.785 892.347V829H306.852z"/><path fill="none" stroke="#000" stroke-width="5" stroke-linejoin="round" stroke-miterlimit="10" id="polygon4087" d="M459.785 676.066V459.785L306.852 829z"/><path fill="none" stroke="#000" stroke-width="5" stroke-linejoin="round" stroke-miterlimit="10" id="polygon4089" d="M459.785 981.934v-89.587L306.852 829z"/><path fill="none" stroke="#000" stroke-width="5" stroke-linejoin="round" stroke-miterlimit="10" id="polygon4091" d="m1090.074 1090.074-44.793 44.794 152.934 63.347z"/><path fill="none" stroke="#000" stroke-width="5" stroke-linejoin="round" stroke-miterlimit="10" id="polygon4093" d="m1198.215 981.934-63.348 63.347 63.348 152.934z"/><path fill="none" stroke="#000" stroke-width="5" stroke-linejoin="round" stroke-miterlimit="10" id="polygon4095" d="m1134.867 1045.281-44.793 44.793 108.141 108.141z"/><path fill="none" stroke="#000" stroke-width="5" stroke-linejoin="round" stroke-miterlimit="10" id="polygon4097" d="m1351.148 829-152.933 152.934v216.281z"/><path fill="none" stroke="#000" stroke-width="5" stroke-linejoin="round" stroke-miterlimit="10" id="polygon4099" d="m1045.281 1134.868-63.347 63.347h216.281z"/><path fill="none" stroke="#000" stroke-width="5" stroke-linejoin="round" stroke-miterlimit="10" id="polygon4101" d="M981.934 1198.215h-89.587L829 1351.148z"/><path fill="none" stroke="#000" stroke-width="5" stroke-linejoin="round" stroke-miterlimit="10" id="polygon4103" d="M829 1198.215h-63.347L829 1351.148z"/><path fill="none" stroke="#000" stroke-width="5" stroke-linejoin="round" stroke-miterlimit="10" id="polygon4105" d="M892.347 1198.215H829v152.933z"/><path fill="none" stroke="#000" stroke-width="5" stroke-linejoin="round" stroke-miterlimit="10" id="polygon4107" d="M981.934 1198.215 829 1351.148l369.215-152.933z"/><path fill="none" stroke="#000" stroke-width="5" stroke-linejoin="round" stroke-miterlimit="10" id="polygon4109" d="m612.719 523.133 63.347-63.348H459.785z"/><path fill="none" stroke="#000" stroke-width="5" stroke-linejoin="round" stroke-miterlimit="10" id="polygon4111" d="m1090.074 567.926 44.793 44.793 63.348-152.934z"/><path fill="none" stroke="#000" stroke-width="5" stroke-linejoin="round" stroke-miterlimit="10" id="polygon4113" d="M1198.215 829v63.347L1351.148 829z"/><path fill="none" stroke="#000" stroke-width="5" stroke-linejoin="round" stroke-miterlimit="10" id="polygon4115" d="M1198.215 676.066v89.587L1351.148 829z"/><path fill="none" stroke="#000" stroke-width="5" stroke-linejoin="round" stroke-miterlimit="10" id="polygon4117" d="m459.785 676.066 63.348-63.347-63.348-152.934z"/><path fill="none" stroke="#000" stroke-width="5" stroke-linejoin="round" stroke-miterlimit="10" id="polygon4119" d="M1198.215 676.066 1351.148 829l-152.933-369.215z"/><path fill="none" stroke="#000" stroke-width="5" stroke-linejoin="round" stroke-miterlimit="10" id="polygon4121" d="M1198.215 765.653V829h152.933z"/><path fill="none" stroke="#000" stroke-width="5" stroke-linejoin="round" stroke-miterlimit="10" id="polygon4123" d="M1198.215 892.347v89.587L1351.148 829z"/><path fill="none" stroke="#000" stroke-width="5" stroke-linejoin="round" stroke-miterlimit="10" id="polygon4125" d="m1090.074 937.14-108.14 44.794 108.14 108.14 44.793-44.793z"/><path fill="none" stroke="#000" stroke-width="5" stroke-linejoin="round" stroke-miterlimit="10" id="polygon4127" d="m1090.074 1090.074-108.14-108.14-44.793 108.14 108.14 44.794z"/><path fill="none" stroke="#000" stroke-width="5" stroke-linejoin="round" stroke-miterlimit="10" id="polygon4129" d="m1198.215 892.347-108.141 44.793 44.793 108.141 63.348-63.347z"/><path fill="none" stroke="#000" stroke-width="5" stroke-linejoin="round" stroke-miterlimit="10" id="polygon4131" d="m1134.867 612.719 63.348 63.347V459.785z"/><path fill="none" stroke="#000" stroke-width="5" stroke-linejoin="round" stroke-miterlimit="10" id="polygon4133" d="M676.066 459.785h89.587L829 306.852z"/><path fill="none" stroke="#000" stroke-width="5" stroke-linejoin="round" stroke-miterlimit="10" id="polygon4135" d="M676.066 459.785 829 306.852 459.785 459.785z"/><path fill="none" stroke="#000" stroke-width="5" stroke-linejoin="round" stroke-miterlimit="10" id="polygon4137" d="m523.133 612.719 44.793-44.793-108.141-108.141z"/><path fill="none" stroke="#000" stroke-width="5" stroke-linejoin="round" stroke-miterlimit="10" id="polygon4139" d="M765.653 459.785H829V306.852z"/><path fill="none" stroke="#000" stroke-width="5" stroke-linejoin="round" stroke-miterlimit="10" id="polygon4141" d="m937.141 1090.074-44.794 108.141h89.587l63.347-63.347z"/><path fill="none" stroke="#000" stroke-width="5" stroke-linejoin="round" stroke-miterlimit="10" id="polygon4143" d="M892.347 459.785h89.587L829 306.852z"/><path fill="none" stroke="#000" stroke-width="5" stroke-linejoin="round" stroke-miterlimit="10" id="polygon4145" d="M981.934 459.785h216.281L829 306.852z"/><path fill="none" stroke="#000" stroke-width="5" stroke-linejoin="round" stroke-miterlimit="10" id="polygon4147" d="M829 459.785h63.347L829 306.852z"/><path fill="none" stroke="#000" stroke-width="5" stroke-linejoin="round" stroke-miterlimit="10" id="polygon4149" d="m981.934 459.785 63.347 63.348 152.934-63.348z"/><path fill="none" stroke="#000" stroke-width="5" stroke-linejoin="round" stroke-miterlimit="10" id="polygon4151" d="m1045.281 523.133 44.793 44.793 108.141-108.141z"/></g><g id="g4269"><circle cx="567.926" cy="720.859" r="20" id="circle4155"/><circle cx="720.859" cy="1090.074" r="20" id="circle4157"/><path d="M985.965 656.473a20.122 20.122 0 0 0-4.031-.406c-11.046 0-20 8.954-20 20s8.954 20 20 20 20-8.954 20-20c0-9.666-6.856-17.729-15.969-19.594z" id="path4159"/><circle cx="1090.074" cy="720.859" r="20" id="circle4161"/><path d="M1045.281 809c-11.046 0-20 8.954-20 20s8.954 20 20 20 20-8.954 20-20-8.954-20-20-20z" id="path4163"/><circle cx="567.926" cy="937.14" r="20" id="circle4165"/><path d="M612.719 809c-11.046 0-20 8.954-20 20s8.954 20 20 20 20-8.954 20-20-8.954-20-20-20z" id="path4167"/><circle cx="829" cy="1045.281" r="20" id="circle4169"/><path d="M676.066 961.934c-11.046 0-20 8.954-20 20s8.954 20 20 20 20-8.954 20-20-8.954-20-20-20z" id="path4171"/><circle cx="937.141" cy="567.926" r="20" id="circle4173"/><path d="M829 809c-11.046 0-20 8.954-20 20s8.954 20 20 20 20-8.954 20-20-8.954-20-20-20z" id="path4175"/><circle cx="720.859" cy="567.926" r="20" id="circle4177"/><circle cx="829" cy="612.719" r="20" id="circle4179"/><path d="M676.066 656.066c-1.381 0-2.729.14-4.031.406-9.114 1.865-15.969 9.929-15.969 19.594 0 11.046 8.954 20 20 20s20-8.954 20-20c0-11.045-8.954-20-20-20z" id="path4181"/><circle cx="676.066" cy="1198.215" r="20" id="circle4183"/><circle cx="612.719" cy="1134.868" r="20" id="circle4185"/><circle cx="567.926" cy="1090.074" r="20" id="circle4187"/><circle cx="523.133" cy="1045.281" r="20" id="circle4189"/><circle cx="459.785" cy="1198.215" r="20" id="circle4191"/><circle cx="459.785" cy="765.653" r="20" id="circle4193"/><circle cx="459.785" cy="829" r="20" id="circle4195"/><circle cx="459.785" cy="981.934" r="20" id="circle4197"/><circle cx="306.852" cy="829" r="20" id="circle4199"/><circle cx="459.785" cy="892.347" r="20" id="circle4201"/><circle cx="765.653" cy="1198.215" r="20" id="circle4203"/><circle cx="829" cy="1198.215" r="20" id="circle4205"/><circle cx="1198.215" cy="1198.215" r="20" id="circle4207"/><circle cx="829" cy="1351.148" r="20" id="circle4209"/><circle cx="612.719" cy="523.133" r="20" id="circle4211"/><circle cx="459.785" cy="676.066" r="20" id="circle4213"/><circle cx="1198.215" cy="765.653" r="20" id="circle4215"/><circle cx="1198.215" cy="829" r="20" id="circle4217"/><circle cx="1351.148" cy="829" r="20" id="circle4219"/><path d="M981.934 961.934c-11.046 0-20 8.954-20 20s8.954 20 20 20 20-8.954 20-20-8.955-20-20-20z" id="path4221"/><circle cx="1090.074" cy="1090.074" r="20" id="circle4223"/><circle cx="1198.215" cy="892.347" r="20" id="circle4225"/><circle cx="1198.215" cy="981.934" r="20" id="circle4227"/><circle cx="1134.867" cy="1045.281" r="20" id="circle4229"/><circle cx="1090.074" cy="937.14" r="20" id="circle4231"/><circle cx="1134.867" cy="612.719" r="20" id="circle4233"/><circle cx="1198.215" cy="676.066" r="20" id="circle4235"/><circle cx="676.066" cy="459.785" r="20" id="circle4237"/><circle cx="523.133" cy="612.719" r="20" id="circle4239"/><circle cx="459.785" cy="459.785" r="20" id="circle4241"/><circle cx="567.926" cy="567.926" r="20" id="circle4243"/><circle cx="765.653" cy="459.785" r="20" id="circle4245"/><circle cx="937.141" cy="1090.074" r="20" id="circle4247"/><circle cx="1045.281" cy="1134.868" r="20" id="circle4249"/><circle cx="981.934" cy="1198.215" r="20" id="circle4251"/><circle cx="892.347" cy="1198.215" r="20" id="circle4253"/><circle cx="829" cy="459.785" r="20" id="circle4255"/><circle cx="829" cy="306.852" r="20" id="circle4257"/><circle cx="892.347" cy="459.785" r="20" id="circle4259"/><circle cx="981.934" cy="459.785" r="20" id="circle4261"/><circle cx="1045.281" cy="523.133" r="20" id="circle4263"/><circle cx="1198.215" cy="459.785" r="20" id="circle4265"/><circle cx="1090.074" cy="567.926" r="20" id="circle4267"/></g></g></g><g id="g4653" transform="matrix(.1002 0 0 .09948 84.706 -5.65)" style="opacity:.0729478"><path fill="#333" id="rect4494" d="M326.9 356.4h191.7v95.2H326.9z"/><path d="M495.4 461.2h-11.6v-19.3h11.6zm-23.2 0h-11.6v-19.3h11.6zm-23.2 0h-11.6v-19.3H449Zm-23.2 0h-11.6v-19.3h11.6zm-23.1 0h-11.6v-19.3h11.6zm-23.2 0h-11.6v-19.3h11.6zm-23.2 0h-11.6v-19.3h11.6zm-19.8-26.5h-19.3v-11.6h19.3zm191.7-12.2h-19.3v-11.6h19.3zm-191.7-11h-19.3v-11.6h19.3zm191.7-12.2h-19.3v-11.6h19.3zm-191.7-11h-19.3v-11.6h19.3zM492 366h-11.6v-19.3H492Zm-23.2 0h-11.6v-19.3h11.6zm-23.2 0H434v-19.3h11.6zm-23.2 0h-11.6v-19.3h11.6zm-23.1 0h-11.6v-19.3h11.6zm-23.2 0h-11.6v-19.3h11.6zm-23.2 0h-11.6v-19.3h11.6z" id="path4496"/><path id="rect4498" d="M488 289h3v58h-3z"/><path id="rect4500" d="M488 289h61v4h-61z"/><path d="M549.6 297.3c7 0 7-10.8 0-10.8s-7 10.8 0 10.8z" id="path4502"/><path id="rect4504" d="M462 250h4v97h-4z"/><path id="rect4506" d="M462 250h47v3h-47z"/><path id="rect4508" d="M506 221h3v32h-3z"/><path d="M507.1 226.6c7 0 7-10.8 0-10.8s-7 10.8 0 10.8z" id="path4510"/><path id="rect4512" d="M437 217h4v130h-4z"/><path id="rect4514" d="M416 275h3v72h-3z"/><path id="rect4516" d="M391 304h3v43h-3z"/><path id="rect4518" d="M362 304h29v3h-29z"/><path id="rect4520" d="M358 253h4v54h-4z"/><path id="rect4522" d="M369 322h4v25h-4z"/><path id="rect4524" d="M333 322h36v3h-36z"/><path id="rect4526" d="M347 336h4v11h-4z"/><path id="rect4528" d="M283 336h64v4h-64z"/><path d="M282.4 345.3c7 0 7-10.8 0-10.8-6.9 0-6.9 10.8 0 10.8z" id="path4530"/><path d="M331 330.3c7 0 7-10.8 0-10.8s-7 10.8 0 10.8z" id="path4532"/><path d="M358.5 260.2c7 0 7-10.8 0-10.8s-6.9 10.8 0 10.8z" id="path4534"/><path d="M415.4 281.2c7 0 7-10.8 0-10.8-6.9 0-6.9 10.8 0 10.8z" id="path4536"/><path d="M437.6 221.3c7 0 7-10.8 0-10.8s-7 10.8 0 10.8z" id="path4538"/><path id="rect4540" d="M527 390h54v4h-54z"/><path id="rect4542" d="M527 415h43v4h-43z"/><path id="rect4544" d="M567 419h3v50h-3z"/><path d="M580.8 398c7 0 7-10.8 0-10.8s-7 10.8 0 10.8z" id="path4546"/><path d="M568.8 475.3c7 0 7-10.8 0-10.8s-7 10.8 0 10.8z" id="path4548"/><path id="rect4550" d="M488 462h3v61h-3z"/><path id="rect4552" d="M488 523h61v3h-61z"/><path id="rect4554" d="M466 462h4v86h-4z"/><path id="rect4556" d="M466 548h58v4h-58z"/><path id="rect4558" d="M441 462h3v86h-3z"/><path id="polygon4560" d="M419 579.3V458h4v122.8l-3.8 3.2H376v-4h41.7z"/><path id="rect4562" d="M394 458h4v97h-4z"/><path id="polygon4564" d="M369 568.6V455h4v115l-4.2 3H333v-3h34.3z"/><path id="polygon4566" d="M347 507.5V455h4v53.9l-3.7 3.1H304v-3h41.8z"/><path d="M548.4 530.4c7 0 7-10.8 0-10.8s-7 10.8 0 10.8z" id="path4568"/><path d="M522.6 556.1c7 0 7-10.8 0-10.8s-6.9 10.8 0 10.8z" id="path4570"/><path d="M441.2 554.3c7 0 7-10.8 0-10.8s-7 10.8 0 10.8z" id="path4572"/><path d="M394.4 562.1c7 0 7-10.8 0-10.8-6.9 0-6.9 10.8 0 10.8z" id="path4574"/><path d="M375.3 589.1c7 0 7-10.8 0-10.8s-7 10.8 0 10.8z" id="path4576"/><path d="M331.5 577.1c7 0 7-10.8 0-10.8-6.9 0-6.9 10.8 0 10.8z" id="path4578"/><path d="M302.2 516.6c7 0 7-10.8 0-10.8s-7 10.8 0 10.8z" id="path4580"/><path id="rect4582" d="M250 379h72v4h-72z"/><path id="rect4584" d="M222 404h104v4H222z"/><path id="rect4586" d="M218 343h4v65h-4z"/><path id="polygon4588" d="M326 426v3h-68.6l.6.9V476h-4v-47.6l1.9-2.4z"/><path d="M219.5 349.5c7 0 7-10.8 0-10.8-6.9 0-6.9 10.8 0 10.8z" id="path4590"/><path d="M250.7 386.6c7 0 7-10.8 0-10.8s-7 10.8 0 10.8z" id="path4592"/><path d="M254.3 483c7 0 7-10.8 0-10.8-7 .1-7 10.8 0 10.8z" id="path4594"/></g><path style="fill:none;fill-opacity:1;stroke:none;stroke-width:.173719;stroke-miterlimit:4;stroke-dasharray:none;stroke-opacity:1;paint-order:stroke fill markers;stop-color:#000" d="M13.339 15.486c10.437-6.328 25.203-12.92 31.54-14.081C54.683-.391 64.406.75 93.952 7.163c28.865 6.266 38.881 6.43 66.341 1.094 17.702-3.441 23.018-4.17 30.649-4.206 7.826-.037 11.742.642 19.355 3.356 5.185 1.849 13.575 6.004 17.01 8.426l2.355 1.66-109.845.016-109.844.016z" id="path10511"/><path style="fill:none;fill-opacity:1;stroke:none;stroke-width:.173719;stroke-miterlimit:4;stroke-dasharray:none;stroke-opacity:1;paint-order:stroke fill markers;stop-color:#000" d="M13.339 15.486c10.437-6.328 25.203-12.92 31.54-14.081C54.683-.391 64.406.75 93.952 7.163c28.865 6.266 38.881 6.43 66.341 1.094 17.702-3.441 23.018-4.17 30.649-4.206 7.826-.037 11.742.642 19.355 3.356 5.185 1.849 13.575 6.004 17.01 8.426l2.355 1.66-109.845.016-109.844.016z" id="path10550"/><path style="fill:none;fill-opacity:1;stroke:none;stroke-width:.173719;stroke-miterlimit:4;stroke-dasharray:none;stroke-opacity:1;paint-order:stroke fill markers;stop-color:#000" d="M13.339 15.486c10.437-6.328 25.203-12.92 31.54-14.081C54.683-.391 64.406.75 93.952 7.163c28.865 6.266 38.881 6.43 66.341 1.094 17.702-3.441 23.018-4.17 30.649-4.206 7.826-.037 11.742.642 19.355 3.356 5.185 1.849 13.575 6.004 17.01 8.426l2.355 1.66-109.845.016-109.844.016z" id="path10589"/><path style="fill:none;fill-opacity:1;stroke:none;stroke-width:.173719;stroke-miterlimit:4;stroke-dasharray:none;stroke-opacity:1;paint-order:stroke fill markers;stop-color:#000" d="M13.339 15.486c10.437-6.328 25.203-12.92 31.54-14.081C54.683-.391 64.406.75 93.952 7.163c28.865 6.266 38.881 6.43 66.341 1.094 17.702-3.441 23.018-4.17 30.649-4.206 7.826-.037 11.742.642 19.355 3.356 5.185 1.849 13.575 6.004 17.01 8.426l2.355 1.66-109.845.016-109.844.016z" id="path10628"/><path style="fill:none;fill-opacity:1;stroke:none;stroke-width:.173719;stroke-miterlimit:4;stroke-dasharray:none;stroke-opacity:1;paint-order:stroke fill markers;stop-color:#000" d="M13.339 15.486c10.437-6.328 25.203-12.92 31.54-14.081C54.683-.391 64.406.75 93.952 7.163c28.865 6.266 38.881 6.43 66.341 1.094 17.702-3.441 23.018-4.17 30.649-4.206 7.826-.037 11.742.642 19.355 3.356 5.185 1.849 13.575 6.004 17.01 8.426l2.355 1.66-109.845.016-109.844.016z" id="path10784"/><path style="fill:none;fill-opacity:1;stroke:none;stroke-width:.173719;stroke-miterlimit:4;stroke-dasharray:none;stroke-opacity:1;paint-order:stroke fill markers;stop-color:#000" d="M13.339 15.486c10.437-6.328 25.203-12.92 31.54-14.081C54.683-.391 64.406.75 93.952 7.163c28.865 6.266 38.881 6.43 66.341 1.094 17.702-3.441 23.018-4.17 30.649-4.206 7.826-.037 11.742.642 19.355 3.356 5.185 1.849 13.575 6.004 17.01 8.426l2.355 1.66-109.845.016-109.844.016z" id="path10823"/><path style="fill:none;fill-opacity:1;stroke:none;stroke-width:.173719;stroke-miterlimit:4;stroke-dasharray:none;stroke-opacity:1;paint-order:stroke fill markers;stop-color:#000" d="M13.339 15.486c10.437-6.328 25.203-12.92 31.54-14.081C54.683-.391 64.406.75 93.952 7.163c28.865 6.266 38.881 6.43 66.341 1.094 17.702-3.441 23.018-4.17 30.649-4.206 7.826-.037 11.742.642 19.355 3.356 5.185 1.849 13.575 6.004 17.01 8.426l2.355 1.66-109.845.016-109.844.016z" id="path10862"/></g></svg>