<?xml version="1.0" encoding="UTF-8"?>
<!-- Created with Inkscape (http://www.inkscape.org/) -->
<svg width="40" height="40" version="1.1" viewBox="0 0 10.583 10.583" xmlns="http://www.w3.org/2000/svg" xmlns:cc="http://creativecommons.org/ns#" xmlns:dc="http://purl.org/dc/elements/1.1/" xmlns:rdf="http://www.w3.org/1999/02/22-rdf-syntax-ns#" xmlns:xlink="http://www.w3.org/1999/xlink">
 <defs>
  <path id="path843" transform="matrix(-.91714 .39856 -.4131 -.91068 0 0)" d="m313.93-230.16a59.212 58.367 0 0 1-54.516 48.757 59.212 58.367 0 0 1-60.558-41.252 59.212 58.367 0 0 1 26.993-67.506" opacity="0" stroke-width="4.9411"/>
  <linearGradient id="linearGradient1162" x1="-132.92" x2="-133.86" y1="260.31" y2="375.24" gradientUnits="userSpaceOnUse" spreadMethod="reflect" xlink:href="#linearGradient1022"/>
  <linearGradient id="linearGradient1022">
   <stop stop-color="#00617c" offset="0"/>
   <stop offset="1"/>
  </linearGradient>
 </defs>
 <metadata>
  <rdf:RDF>
   <cc:Work rdf:about="">
    <dc:format>image/svg+xml</dc:format>
    <dc:type rdf:resource="http://purl.org/dc/dcmitype/StillImage"/>
    <dc:title/>
   </cc:Work>
  </rdf:RDF>
 </metadata>
 <g transform="translate(0 -286.42)">
  <path transform="matrix(-.91714 .39856 -.4131 -.91068 0 0)" d="m129.64-273.57a18.11 17.852 0 0 1-16.674 14.913 18.11 17.852 0 0 1-18.522-12.617 18.11 17.852 0 0 1 8.2561-20.647" opacity="0" stroke-width="1.5113"/>
  <g fill="#333">
   <g transform="matrix(.08344 0 0 .08344 16.825 265.15)" stroke="url(#linearGradient1162)">
    <g transform="translate(-93.977 -1.9554)" fill="#333" stroke="url(#linearGradient1162)">
     <g transform="matrix(0 -1.0073 .99277 0 0 0)" fill="#333" stroke="url(#linearGradient1162)" stroke-width="6.5224" aria-label="u">
      <path transform="matrix(0 .26651 -.26267 0 -1.9413 94.661)" d="m-609.26 1131.1v12.598h86.498c11.956 0 22.166 3.9194 30.627 11.758 8.3693 7.745 12.553 16.984 12.553 27.715 0 10.638-4.1834 19.642-12.553 27.014s-18.579 11.059-30.627 11.059h-86.498v12.598h86.498c2.4831 0 4.9036-0.1452 7.2734-0.4101l-0.75 0.5957 22.773 56.379 18.508-0.055-24.65-61.023c5.7668-2.4473 11.111-5.8832 16.025-10.324 10.852-9.9846 16.279-22.116 16.279-36.393 0-14.37-5.4268-26.547-16.279-36.531-10.944-9.9846-24.005-14.978-39.18-14.978zm182.16 1.1621 0.86945 158.48h7.1582l-0.86945-158.48zm-182.16 101.58 0.35253 57.044h12.704v-62.389z" fill="#333" stroke="url(#linearGradient1162)" stroke-width="24.65" style="paint-order:markers fill stroke"/>
     </g>
    </g>
   </g>
   <g transform="matrix(.08344 0 0 .08344 16.829 265.11)" stroke="#00617c">
    <g transform="translate(-93.977 -1.9554)" fill="#333" stroke="#00617c">
     <g transform="matrix(0 -1.0073 .99277 0 0 0)" fill="#333" stroke="#00617c" stroke-width="6.5224" aria-label="u">
      <path transform="matrix(0 .26651 -.26267 0 -1.9413 94.661)" d="m-609.26 1131.1v12.598h86.498c11.956 0 22.166 3.9194 30.627 11.758 8.3693 7.745 12.553 16.984 12.553 27.715 0 10.638-4.1834 19.642-12.553 27.014s-18.579 11.059-30.627 11.059h-86.498v12.598h86.498c2.4831 0 4.9036-0.1452 7.2734-0.4101l-0.75 0.5957 22.773 56.379 18.508-0.055-24.65-61.023c5.7668-2.4473 11.111-5.8832 16.025-10.324 10.852-9.9846 16.279-22.116 16.279-36.393 0-14.37-5.4268-26.547-16.279-36.531-10.944-9.9846-24.005-14.978-39.18-14.978zm182.16 1.1621 0.86945 158.48h7.1582l-0.86945-158.48zm-182.16 101.58 0.35253 57.044h12.704v-62.389z" fill="#333" stroke="#00617c" stroke-width="24.65" style="paint-order:markers fill stroke"/>
     </g>
    </g>
   </g>
   <g transform="matrix(.08344 0 0 .08344 16.825 265.15)" stroke-width=".26458" aria-label="RAWAJ ALITQAN">
    <path d="m-199.37 333.83q-0.21804-0.99233 0.0684-1.7401 0.27638-0.75422 1.095-0.93411 1.0171-0.22349 1.6864 0.65237 0.24393-0.62573 0.82334-0.9871 0.57942-0.36136 1.7633-0.81221l0.17261 0.78559q-2.4973 0.90414-2.232 2.1115l0.21804 0.99233 2.5718-0.56509 0.17262 0.78559-5.8217 1.2792q-0.36707-0.88156-0.51788-1.5679zm1.3802-1.9243q-1.0337 0.22712-0.69389 1.7735 0.10175 0.46309 0.22123 0.80959l2.0343-0.44699-0.21077-0.95925q-0.3089-1.4058-1.3508-1.1768z"/>
    <path d="m-194.84 319.5 0.0405 0.8796-1.9844 0.89654 0.11175 2.4274 2.0576 0.6935 0.0401 0.87115-6.266-2.2627-0.0319-0.69353zm-2.615 2.1122-2.4795 1.0041 2.5636 0.82277z"/>
    <path d="m-193.8 309.37-0.10589 0.72895-5.1218 0.80458 4.6825 2.2202-0.10589 0.72895-6.2414 0.79596 0.12657-0.87139 4.963-0.47687-4.5772-2.1792 0.10953-0.75409 5.0093-0.79526-4.6222-1.8692 0.12658-0.87138z"/>
    <path d="m-190.56 298.43-0.29212 0.83067-2.1758 0.0875-0.80614 2.2923 1.6477 1.4141-0.28931 0.82268-4.9612-4.4462 0.23032-0.65495zm-3.216 0.97816-2.6751 2e-3 2.0684 1.7236z"/>
    <path d="m-188.64 293.11q0.31599-0.5799 0.0949-0.97037-0.22451-0.40195-0.94567-0.7949l-3.4199-1.8635 0.38485-0.70629 3.5314 1.9242q1.8958 1.033 0.96408 2.743-0.23496 0.43121-0.73413 0.83415l-0.47458-0.50928q0.36006-0.21841 0.59907-0.65705z"/>
    <path d="m-175 276.67-0.63323 0.61185-1.9845-0.89629-1.7475 1.6885 0.83984 2.0023-0.62714 0.60597-2.4444-6.1973 0.49928-0.48242zm-3.3135-0.56583-2.3925-1.1967 1.0774 2.4675z"/>
    <path d="m-167.78 271.31-3.1041 2.1354-3.4359-4.9944 0.66266-0.45588 3.0472 4.4294 2.4414-1.6795z"/>
    <path d="m-162.36 268.28-0.717 0.36451-2.7473-5.4039 0.717-0.36451z"/>
    <path d="m-154.67 265.07-0.76033 0.26239-1.7539-5.0822-2.1209 0.73193-0.22372-0.64829 4.9702-1.7152 0.22372 0.64828-2.0889 0.72088z"/>
    <path d="m-143.12 259.32q-0.16103-1.0203-0.87404-1.6278-0.70466-0.6088-1.6581-0.45833-0.96176 0.15178-1.453 0.94932-0.48291 0.79621-0.32189 1.8165 0.16103 1.0203 0.86568 1.6291 0.71302 0.60747 1.6748 0.45569 0.9534-0.15047 1.4363-0.94668 0.49128-0.79754 0.33026-1.8178zm0.78041-0.10602q0.16102 1.0203-0.20789 1.8328-0.37023 0.80415-1.1295 1.2068l8e-3 0.0502q0.98199 0.085 1.8839 0.097l-0.14399 0.71701q-0.94017-0.0916-2.5137-0.34043-0.0625-0.0159-0.33408 1e-3 -1.2796 0.20194-2.2487-0.56225-0.96918-0.76419-1.1764-2.0772-0.20854-1.3214 0.47687-2.3553 0.6854-1.0339 1.965-1.2358 1.2796-0.20194 2.2417 0.57193 0.9705 0.77256 1.179 2.0939z"/>
    <path d="m-131.17 261.99-0.88033-0.0188-0.76087-2.0403-2.4294-0.052-0.8305 2.0062-0.87186-0.0186 2.6795-6.0994 0.6941 0.0148zm-1.9313-2.7513-0.83484-2.5415-0.99354 2.5024z"/>
    <path d="m-121.32 263.51-0.74773-0.14675-2.1682-5.4385-0.94737 4.827-0.78927-0.1549 1.1675-5.9486 0.78927 0.1549 2.1511 5.3057 0.9229-4.7024 0.78928 0.15491z"/>
   </g>
  </g>
  <path transform="matrix(-.91714 .39856 -.4131 -.91068 0 0)" d="m129.64-273.57a18.11 17.852 0 0 1-16.674 14.913 18.11 17.852 0 0 1-18.522-12.617 18.11 17.852 0 0 1 8.2561-20.647" opacity="0" stroke-width="1.5113"/>
  <g>
   <g transform="matrix(.08344 0 0 .08344 16.825 265.15)" fill="#333" stroke="url(#linearGradient1162)">
    <g transform="translate(-93.977 -1.9554)" fill="#333" stroke="url(#linearGradient1162)">
     <g transform="matrix(0 -1.0073 .99277 0 0 0)" fill="#333" stroke="url(#linearGradient1162)" stroke-width="6.5224" aria-label="u">
      <path transform="matrix(0 .26651 -.26267 0 -1.9413 94.661)" d="m-609.26 1131.1v12.598h86.498c11.956 0 22.166 3.9194 30.627 11.758 8.3693 7.745 12.553 16.984 12.553 27.715 0 10.638-4.1834 19.642-12.553 27.014s-18.579 11.059-30.627 11.059h-86.498v12.598h86.498c2.4831 0 4.9036-0.1452 7.2734-0.4101l-0.75 0.5957 22.773 56.379 18.508-0.055-24.65-61.023c5.7668-2.4473 11.111-5.8832 16.025-10.324 10.852-9.9846 16.279-22.116 16.279-36.393 0-14.37-5.4268-26.547-16.279-36.531-10.944-9.9846-24.005-14.978-39.18-14.978zm182.16 1.1621 0.86945 158.48h7.1582l-0.86945-158.48zm-182.16 101.58 0.35253 57.044h12.704v-62.389z" fill="#333" stroke="url(#linearGradient1162)" stroke-width="24.65" style="paint-order:markers fill stroke"/>
     </g>
    </g>
   </g>
   <path transform="matrix(-.98338 .18154 .18154 .98338 0 0)" d="m52.671 288.63a5.0173 5.0173 0 0 1-4.6194 4.1913 5.0173 5.0173 0 0 1-5.1314-3.5462 5.0173 5.0173 0 0 1 2.2873-5.803" fill="none" stroke="#00617c" stroke-width=".42171"/>
   <g transform="matrix(.08344 0 0 .08344 16.829 265.11)" fill="#333" stroke="#00617c">
    <g transform="translate(-93.977 -1.9554)" fill="#333" stroke="#00617c">
     <g transform="matrix(0 -1.0073 .99277 0 0 0)" fill="#333" stroke="#00617c" stroke-width="6.5224" aria-label="u">
      <path transform="matrix(0 .26651 -.26267 0 -1.9413 94.661)" d="m-609.26 1131.1v12.598h86.498c11.956 0 22.166 3.9194 30.627 11.758 8.3693 7.745 12.553 16.984 12.553 27.715 0 10.638-4.1834 19.642-12.553 27.014s-18.579 11.059-30.627 11.059h-86.498v12.598h86.498c2.4831 0 4.9036-0.1452 7.2734-0.4101l-0.75 0.5957 22.773 56.379 18.508-0.055-24.65-61.023c5.7668-2.4473 11.111-5.8832 16.025-10.324 10.852-9.9846 16.279-22.116 16.279-36.393 0-14.37-5.4268-26.547-16.279-36.531-10.944-9.9846-24.005-14.978-39.18-14.978zm182.16 1.1621 0.86945 158.48h7.1582l-0.86945-158.48zm-182.16 101.58 0.35253 57.044h12.704v-62.389z" fill="#333" stroke="#00617c" stroke-width="24.65" style="paint-order:markers fill stroke"/>
     </g>
    </g>
   </g>
  </g>
  <g fill="#333333" font-family="sans-serif" font-size="7.0506px" letter-spacing="0px" stroke-width=".073444" word-spacing="0px">
   <text transform="translate(-15.875,-15.875)" x="135.88145" y="57.498623" style="line-height:1.25" xml:space="preserve"><textPath fill="#333333" font-family="Laksaman" font-size="2.3502px" font-weight="bold" letter-spacing="1.2801px" stroke-width=".073444" word-spacing=".25558px" xlink:href="#path843">RAWAJ ALITQAN</textPath></text>
   <text x="135.88145" y="57.498623" style="line-height:1.25" xml:space="preserve"><textPath fill="#333333" font-family="Laksaman" font-size="2.3502px" font-weight="bold" letter-spacing="1.2801px" stroke-width=".073444" word-spacing=".25558px" xlink:href="#path843">RAWAJ ALITQAN</textPath></text>
   <text x="141.17313" y="56.969456" style="line-height:1.25" xml:space="preserve"><textPath fill="#333333" font-family="Laksaman" font-size="2.3502px" font-weight="bold" letter-spacing="1.2801px" stroke-width=".073444" word-spacing=".25558px" xlink:href="#path843">RAWAJ ALITQAN</textPath></text>
  </g>
 </g>
</svg>
